<?xml version="1.0" standalone="no"?><!DOCTYPE svg PUBLIC "-//W3C//DTD SVG 1.1//EN" "http://www.w3.org/Graphics/SVG/1.1/DTD/svg11.dtd"><svg t="1608864269088" class="icon" viewBox="0 0 1024 1024" version="1.1" xmlns="http://www.w3.org/2000/svg" p-id="6621" xmlns:xlink="http://www.w3.org/1999/xlink" width="200" height="200"><defs><style type="text/css"></style></defs><path d="M527.270798 415.897222c9.046027 0 16.665565-3.097548 22.862707-9.29469 6.197142-6.200212 9.29469-13.654998 9.29469-22.363334L559.428196 148.400888c0-8.711406-3.097548-16.249079-9.29469-22.614044-6.198166-6.364965-13.817704-9.5454-22.862707-9.5454-8.711406 0-16.166191 3.181459-22.363334 9.5454-6.197142 6.364965-9.29469 13.903661-9.29469 22.614044l0 235.83831c0 8.707312 3.097548 16.163121 9.29469 22.363334C511.104607 412.799674 518.560416 415.897222 527.270798 415.897222zM885.160885 430.66967c-7.135514-28.806069-17.565051-56.106856-31.281447-81.900312-13.716396-25.78834-30.178323-49.79408-49.383734-72.01722-19.206434-22.223141-41.159422-42.117237-65.849754-59.676148-51.996235 1.807159-59.060117 31.861662-54.131875 56.008618 84.438111 52.449559 140.66981 146.015561 140.66981 252.730025 0 164.206876-133.115764 297.322639-297.322639 297.322639S230.538607 690.021509 230.538607 525.814634c0-102.467743 51.837622-192.824657 130.717134-246.288313 3.496637-24.639167-4.517897-56.568367-53.092195-56.688093-23.048949 17.559934-43.900859 37.312814-62.554708 59.265802-18.657942 21.945825-34.294061 45.541219-46.920636 70.78209-12.619412 25.244964-22.360264 51.853995-29.221532 79.839373-6.860245 27.985378-10.284227 56.522318-10.284227 85.60161 0 51.03842 9.599635 98.912777 28.810163 143.637398 19.201318 44.715411 45.540196 83.678818 79.014588 116.874871 33.473369 33.20424 72.568782 59.539025 117.293403 79.018681 44.724621 19.481703 92.325755 29.224602 142.81159 29.224602 51.025117 0 98.908684-9.741875 143.624095-29.224602 44.725644-19.478633 83.682911-45.813419 116.888174-79.018681 33.196053-33.19196 59.534931-72.155367 79.014588-116.874871 19.48375-44.724621 29.220508-92.598978 29.220508-143.633305C895.859551 488.696248 892.290259 459.479833 885.160885 430.66967z" p-id="6622"></path></svg>